<svg width="20" height="20" viewBox="0 0 20 20" fill="none" xmlns="http://www.w3.org/2000/svg">
    <path fill-rule="evenodd" clip-rule="evenodd"
        d="M8.6 8.6H15.4222C15.2657 7.99382 15.0078 7.41491 14.6562 6.88881C14.0409 5.96789 13.1663 5.25013 12.143 4.82628C11.1198 4.40243 9.99379 4.29153 8.9075 4.50761C7.8212 4.72368 6.82338 5.25703 6.0402 6.0402C5.25703 6.82338 4.72368 7.8212 4.50761 8.9075C4.29153 9.99379 4.40243 11.1198 4.82628 12.143C5.25013 13.1663 5.96789 14.0409 6.88881 14.6562C7.41491 15.0078 7.99382 15.2657 8.6 15.4222V8.6ZM10 17C9.52744 17 9.05851 16.9522 8.6 16.8586C7.7152 16.678 6.86924 16.3269 6.11101 15.8203C4.95987 15.0511 4.06266 13.9579 3.53285 12.6788C3.00303 11.3997 2.86441 9.99224 3.13451 8.63437C3.4046 7.2765 4.07129 6.02922 5.05026 5.05026C6.02922 4.07129 7.2765 3.4046 8.63437 3.13451C9.99224 2.86441 11.3997 3.00303 12.6788 3.53285C13.9579 4.06266 15.0511 4.95987 15.8203 6.11101C16.3269 6.86924 16.678 7.7152 16.8586 8.6C16.9522 9.05851 17 9.52744 17 10H10V17Z"
        fill="#77787D" />
    <path fill-rule="evenodd" clip-rule="evenodd"
        d="M13.3961 16.5101C13.6487 16.4448 13.897 16.3619 14.1391 16.2616C14.8185 15.9802 15.4359 15.5677 15.9559 15.0477C16.4759 14.5277 16.8884 13.9103 17.1698 13.2309C17.2701 12.9888 17.353 12.7405 17.4183 12.4879H13.3961V16.5101ZM13.3961 17.9465C12.9365 18.0403 12.4675 18.0879 11.9961 18.0879L11.9961 11.0879H18.9961C18.9961 11.5593 18.9485 12.0283 18.8547 12.4879C18.7655 12.9246 18.6346 13.3529 18.4633 13.7667C18.1115 14.616 17.5959 15.3876 16.9458 16.0376C16.2958 16.6876 15.5242 17.2033 14.6749 17.555C14.2611 17.7264 13.8328 17.8573 13.3961 17.9465Z"
        fill="#77787D" />
</svg>