<svg width="20" height="20" viewBox="0 0 20 20" fill="none" xmlns="http://www.w3.org/2000/svg">
    <path fill-rule="evenodd" clip-rule="evenodd"
        d="M11.9136 14.1689C13.3247 12.4328 14.6 10.1533 14.6 7.64706C14.6 5.38022 12.6217 3.4 10 3.4C7.37832 3.4 5.4 5.38022 5.4 7.64706C5.4 10.1533 6.67531 12.4328 8.08639 14.1689C8.78026 15.0225 9.47678 15.7072 9.99915 16.1775C9.99943 16.1777 9.99972 16.178 10 16.1782C10.0003 16.178 10.0006 16.1777 10.0009 16.1775C10.5232 15.7072 11.2197 15.0225 11.9136 14.1689ZM10 18C10 18 16 13.5894 16 7.64706C16 4.52827 13.3137 2 10 2C6.68629 2 4 4.52827 4 7.64706C4 13.5894 10 18 10 18Z"
        fill="#77787D" />
    <path
        d="M11 8C11 8.55228 10.5523 9 10 9C9.44772 9 9 8.55228 9 8C9 7.44772 9.44772 7 10 7C10.5523 7 11 7.44772 11 8Z"
        fill="#77787D" />
</svg>