<svg width="20" height="20" viewBox="0 0 20 20" fill="none" xmlns="http://www.w3.org/2000/svg">
    <path fill-rule="evenodd" clip-rule="evenodd"
        d="M1.30078 5.9998C1.30078 4.50863 2.50961 3.2998 4.00078 3.2998H16.0008C17.492 3.2998 18.7008 4.50864 18.7008 5.9998V12.1737C18.7008 13.6649 17.492 14.8737 16.0008 14.8737H15.7642C15.5015 14.8737 15.2449 14.9533 15.0283 15.1021L11.7733 17.3374C10.6651 18.0984 9.24576 16.9521 9.75648 15.7086C9.92001 15.3105 9.62723 14.8737 9.19679 14.8737H4.00078C2.50961 14.8737 1.30078 13.6649 1.30078 12.1737V5.9998ZM4.00078 4.6998C3.28281 4.6998 2.70078 5.28183 2.70078 5.9998V12.1737C2.70078 12.8917 3.28281 13.4737 4.00078 13.4737H9.19679C10.5723 13.4737 11.5236 14.8196 11.1038 16.0988L14.2358 13.948C14.6856 13.6391 15.2185 13.4737 15.7642 13.4737H16.0008C16.7188 13.4737 17.3008 12.8917 17.3008 12.1737V5.9998C17.3008 5.28183 16.7188 4.6998 16.0008 4.6998H4.00078Z"
        fill="#77787D" />
</svg>