<svg width="20" height="20" viewBox="0 0 20 20" fill="none" xmlns="http://www.w3.org/2000/svg">
    <path fill-rule="evenodd" clip-rule="evenodd"
        d="M8.54375 2.06974C9.20398 0.968944 10.7993 0.96894 11.4595 2.06974L12.0508 3.05565C12.1279 3.18406 12.2878 3.23601 12.4256 3.1774L13.4835 2.72735C14.6646 2.22487 15.9552 3.16256 15.8424 4.4412L15.7412 5.58639C15.7281 5.73554 15.8269 5.87157 15.9728 5.90514L17.0932 6.16286C18.3442 6.45061 18.8371 7.96783 17.9942 8.93591L17.2393 9.80296C17.141 9.91589 17.141 10.084 17.2393 10.197L17.9942 11.064C18.8371 12.0321 18.3442 13.5493 17.0932 13.8371L15.9728 14.0948C15.8269 14.1284 15.7281 14.2644 15.7412 14.4135L15.8424 15.5587C15.9552 16.8374 14.6646 17.7751 13.4835 17.2726L12.4256 16.8225C12.2878 16.7639 12.1279 16.8159 12.0508 16.9443L11.4595 17.9302C10.7993 19.031 9.20398 19.031 8.54375 17.9302L7.95243 16.9443C7.87541 16.8159 7.7155 16.7639 7.57771 16.8225L6.51981 17.2726C5.33865 17.7751 4.04802 16.8374 4.16091 15.5587L4.26202 14.4135C4.27519 14.2644 4.17636 14.1284 4.03044 14.0948L2.91005 13.8371C1.65911 13.5493 1.16614 12.0321 2.00903 11.064L2.76396 10.197C2.86228 10.084 2.86228 9.91589 2.76396 9.80296L2.00903 8.93591C1.16614 7.96783 1.65911 6.45061 2.91005 6.16286L4.03044 5.90514C4.17636 5.87157 4.27519 5.73554 4.26202 5.58639L4.16091 4.4412C4.04802 3.16256 5.33864 2.22487 6.51981 2.72735L7.57771 3.1774C7.7155 3.23601 7.87541 3.18406 7.95243 3.05565L8.54375 2.06974ZM10.2589 2.78983C10.1424 2.59558 9.86087 2.59558 9.74436 2.78983L9.15303 3.77574C8.7166 4.5034 7.81045 4.79783 7.02966 4.46567L5.97177 4.01562C5.76332 3.92695 5.53557 4.09242 5.55549 4.31807L5.6566 5.46326C5.73122 6.30847 5.17119 7.07929 4.34428 7.26951L3.2239 7.52723C3.00314 7.57801 2.91615 7.84575 3.06489 8.01659L3.81982 8.88364C4.377 9.52357 4.377 10.4764 3.81982 11.1163L3.06489 11.9833C2.91615 12.1542 3.00314 12.4219 3.2239 12.4727L4.34428 12.7304C5.17119 12.9206 5.73122 13.6915 5.6566 14.5367L5.55549 15.6819C5.53557 15.9075 5.76332 16.073 5.97177 15.9843L7.02966 15.5343C7.81045 15.2021 8.7166 15.4965 9.15303 16.2242L9.74436 17.2101C9.86087 17.4043 10.1424 17.4043 10.2589 17.2101L10.8502 16.2242C11.2867 15.4965 12.1928 15.2021 12.9736 15.5343L14.0315 15.9843C14.2399 16.073 14.4677 15.9075 14.4478 15.6819L14.3467 14.5367C14.272 13.6914 14.8321 12.9206 15.659 12.7304L16.7794 12.4727C17.0001 12.4219 17.0871 12.1542 16.9384 11.9833L16.1834 11.1163C15.6263 10.4764 15.6263 9.52357 16.1834 8.88364L16.9384 8.01659C17.0871 7.84575 17.0001 7.57801 16.7794 7.52723L15.659 7.26951C14.8321 7.07929 14.272 6.30847 14.3467 5.46326L14.4478 4.31807C14.4677 4.09243 14.2399 3.92695 14.0315 4.01562L12.9736 4.46567C12.1928 4.79783 11.2867 4.5034 10.8502 3.77574L10.2589 2.78983Z"
        fill="#77787D" />
    <path fill-rule="evenodd" clip-rule="evenodd"
        d="M13.5004 7.50141C13.7757 7.77673 13.7757 8.22311 13.5004 8.49843L9.50039 12.4984C9.22507 12.7738 8.77868 12.7738 8.50336 12.4984L6.50336 10.4984C6.22805 10.2231 6.22805 9.77673 6.50336 9.50141C6.77868 9.22609 7.22507 9.22609 7.50039 9.50141L9.00187 11.0029L12.5034 7.50141C12.7787 7.22609 13.2251 7.22609 13.5004 7.50141Z"
        fill="#77787D" />
</svg>